<?xml version="1.0" encoding="UTF-8"?>
<svg id="Layer_1" data-name="Layer 1" xmlns="http://www.w3.org/2000/svg" version="1.1" viewBox="0 0 17.4 841.9">
  <defs>
    <style>
      .cls-1 {
        fill: #faf074;
        stroke-width: 0px;
      }
    </style>
  </defs>
  <path class="cls-1" d="M-.1,285.8v-1.1c.2.1.3.2.5.3,2.6-2.6,5.2-5.2,7.7-7.7-1.2-1.2-2.3-2.3-3.5-3.5-1.3,1.3-2.8,2.8-4.2,4.2-.2-.1-.3-.2-.5-.3v-1.2c.2.1.3.3.5.3,1.2-1.2,2.4-2.4,3.6-3.6-1.1-1.1-2.3-2.3-3.5-3.5-.2.2-.3.3-.5.5v-2.1c.1.1.2.1.4.2v-6.7c0-.3,0-.5-.4-.7v-1.1c.1,0,.2.1.4.2v-6.5c0-.3,0-.6-.4-.8v-1.1c.1,0,.2.1.4.2v-6.6c0-.3,0-.7-.4-.8v-1.1c.1,0,.2.1.3.2v-6.6c-.2,0-.2.1-.3.2v-2c.2.2.4.4.6.5,1.2-1.2,2.4-2.4,3.5-3.5-1.3-1.3-2.7-2.7-4-4.2v-1.1c0,.1.3.2.4.3,1.3,1.3,2.7,2.7,4,4,0,.1.2.2.3.3,1.2-1.2,2.4-2.4,3.6-3.6-.3-.3-.7-.6-1-.9-2.4-2.4-4.9-4.9-7.3-7.3v-1.1c.2.1.3.2.4.3,2.7,2.7,5.4,5.4,8.2,8.2.1.1.2.2.3.3,1.2-1.2,2.4-2.4,3.6-3.5-4.2-4.2-8.3-8.3-12.5-12.5v-1.1c.2.1.3.2.5.4,4.1,4.1,8.2,8.2,12.3,12.3.1.1.3.2.3.3,1.2-1.2,2.4-2.4,3.5-3.5-5.3-5.3-10.7-10.7-16.1-16.1,0,.1-.3.2-.4.3v-1.1c0-.1,0-.3,0-.4v-6.5c0-.1,0-.3,0-.4v-2.1c.2.2.3.3.5.4,4-4,8-8,11.9-11.9-1.1-1.2-2.3-2.3-3.5-3.5-2.7,2.7-5.5,5.5-8.3,8.4-.2-.2-.3-.3-.5-.4v-1.1c.2.1.3.2.5.3,2.6-2.6,5.2-5.2,7.7-7.7-1.2-1.2-2.3-2.3-3.5-3.5-1.3,1.3-2.8,2.8-4.2,4.2-.2-.1-.3-.2-.5-.3v-1.2c.2.1.3.3.5.3,1.2-1.2,2.4-2.4,3.6-3.6-1.1-1.1-2.3-2.3-3.5-3.5-.2.2-.3.3-.5.5v-2.1c0,.1.2.1.4.2v-6.7c0-.3-.1-.5-.4-.7v-1.1c0,0,.2.1.4.2v-6.5c0-.3,0-.6-.4-.8v-1.1c0,0,.2.1.4.2v-6.6c0-.3,0-.7-.4-.8v-1.1c0,0,.2.1.3.2v-6.6c-.2,0-.2.1-.3.2v-2c.2.2.4.4.6.5,1.2-1.2,2.4-2.4,3.5-3.5-1.3-1.3-2.7-2.7-4-4.2v-1.1c.1,0,.3.2.4.3,1.3,1.3,2.7,2.7,4,4,0,.1.2.2.3.3,1.2-1.2,2.4-2.4,3.6-3.6-.3-.3-.7-.6-1-.9-2.4-2.4-4.9-4.9-7.3-7.3v-1.1c.2,0,.3.2.4.3,2.7,2.7,5.4,5.4,8.2,8.2.1,0,.2.2.3.3,1.2-1.2,2.4-2.4,3.6-3.6-4.2-4.2-8.4-8.4-12.6-12.5v-1.1c.2,0,.3.2.5.4,4.1,4.1,8.2,8.2,12.3,12.3.1,0,.3.2.3.3,1.2-1.2,2.4-2.4,3.5-3.5-5.4-5.3-10.7-10.7-16.1-16-.1,0-.3.2-.4.3v-1.1c0,0,0-.3,0-.4v-6.5c0,0,0-.3,0-.4v-2.1c.2.2.3.3.5.4,4-4,8-8,11.9-11.9-1.1-1.2-2.3-2.3-3.5-3.5-2.7,2.7-5.5,5.5-8.3,8.4-.2-.2-.3-.3-.5-.4v-1.1c.2,0,.3.2.5.3,2.6-2.6,5.2-5.2,7.7-7.7-1.2-1.2-2.3-2.3-3.5-3.5-1.3,1.3-2.8,2.8-4.2,4.2-.2,0-.3-.2-.5-.3v-1.2c.2,0,.3.3.5.3,1.2-1.2,2.4-2.4,3.6-3.6-1.1-1.1-2.3-2.3-3.5-3.5-.2.2-.3.3-.5.5v-2.1c.1,0,.2,0,.4.2v-6.7c0-.3-.1-.5-.4-.7v-1.1c.1,0,.2,0,.4.2v-6.5c0-.3,0-.6-.4-.8v-1.1c.1,0,.2,0,.4.2v-6.6c0-.3,0-.7-.4-.8v-1.1c.1,0,.2,0,.3.2v-6.6c-.2,0-.2,0-.3.2v-2c.2.2.4.4.6.5,1.2-1.2,2.4-2.4,3.5-3.5-1.3-1.3-2.7-2.7-4-4.2v-1.1c.1.1.3.2.4.3,1.3,1.3,2.7,2.7,4,4,0,0,.2.2.3.3,1.2-1.2,2.4-2.4,3.6-3.6-.3-.3-.7-.6-1-.9-2.5-2.5-4.9-4.9-7.3-7.4v-1.1c-.8-.7-.6-.6-.5-.5,2.7,2.7,5.4,5.4,8.2,8.1.1.1.2.2.3.3,1.2-1.2,2.4-2.4,3.6-3.5C8.2,19.8,4,15.7-.1,11.6v-1.1c.2.1.3.2.5.4,4.1,4.1,8.2,8.2,12.3,12.3.1.1.3.2.3.3,1.2-1.2,2.4-2.4,3.5-3.5C11,14.6,5.7,9.2.3,3.9c-.1,0-.3,0-.4.3V1h.9v1.6c0,.2.1.5.3.7.8.9,1.8,1.8,2.7,2.7,0,0,.1,0,.3.2V1h.8v5.8c0,.2.2.4.3.6.9.9,1.8,1.8,2.8,2.7.1.1.2.1.3.2V1h.8v10c0,.2.1.4.2.5l2.7,2.7c.1.1.2.1.3.2V.8h.7v14c0,.2,0,.5.2.7,1.1,1.1,2.2,2.2,3.3,3.3v2.1c-1,1-1.9,2-2.9,3.1l2.9,2.9v1.1c-.7-.7-1.4-1.3-2.1-2l-1.4-1.4c-1.2,1.2-2.4,2.4-3.5,3.5,0,0,.1.1.2.2,2.2,2.2,4.4,4.4,6.6,6.6.1,0,.2,0,.3.2v1.2c-.1,0-.3-.2-.4-.3-2.3-2.3-4.6-4.6-6.9-6.9-.2-.2-.2-.3-.3-.4-1.3,1.3-2.4,2.5-3.6,3.6,0,0,0,0,.2.2,3.6,3.6,7.2,7.2,10.7,10.7.1,0,.2.2.3.2v1.2c-.2-.2-.3-.3-.4-.4-3.7-3.7-7.3-7.3-11-11,0-.2-.2-.3-.3-.4-1.2,1.2-2.4,2.4-3.5,3.5.1,0,.2.2.3.3,3.7,3.7,7.3,7.3,11,11,1.3,1.3,2.7,2.7,4,4v1.1c-.1,0-.3-.2-.4-.3-2.2-2.2-4.3-4.3-6.5-6.5-.1,0-.2-.3-.2-.5,0,0-.1,0-.2.2v14.3s.1,0,.1,0c.1,0,.2-.3.3-.4,2.2-2.2,4.3-4.3,6.4-6.4.1,0,.3-.2.4-.3v1.1c-.2.2-.3.3-.4.4l-7.5,7.5c-2.4,2.4-4.7,4.7-7.1,7.1-.1,0-.2.3-.3.3,1.2,1.2,2.4,2.4,3.6,3.6,0-.2.2-.3.3-.5,3.7-3.7,7.3-7.4,11-11,.1,0,.3-.2.4-.3v1.2c-.1,0-.2.2-.3.3-3.5,3.5-7.1,7.1-10.6,10.6,0,0-.2.2-.3.3,1.2,1.2,2.4,2.4,3.5,3.5.1,0,.2-.2.4-.3,2.3-2.3,4.6-4.6,6.9-6.9.1,0,.3-.2.4-.3v1.2c-.1,0-.2.2-.3.2-2.2,2.2-4.4,4.4-6.6,6.6-.1,0-.2.2-.2.2,1.2,1.2,2.4,2.4,3.5,3.5.8-.8,1.8-1.8,2.7-2.7.3-.3.5-.5.8-.7v1.1c-1,1-2,2-2.9,2.9,1,1,2,2,2.9,3v1.1c-.1,0-.3-.2-.4-.3-.9-.9-1.8-1.8-2.7-2.7-.1,0-.2-.2-.4-.3v32c0,.2,0,.5.2.7,1.1,1.1,2.2,2.2,3.3,3.3v2.1c-1,1-1.9,2-2.9,3.1.9.9,1.9,1.9,2.9,2.9v1.1c-.7-.7-1.4-1.3-2.1-2-.5-.5-1-1-1.4-1.4-1.2,1.2-2.4,2.4-3.5,3.5,0,0,.1,0,.2.2,2.2,2.2,4.4,4.4,6.6,6.6.1.1.2.1.3.2v1.2c-.1-.1-.3-.2-.4-.3-2.3-2.3-4.6-4.6-6.9-6.9-.2-.2-.2-.3-.3-.4-1.3,1.3-2.4,2.5-3.6,3.6,0,0,0,.1.2.2,3.6,3.6,7.2,7.2,10.7,10.7.1.1.2.2.3.2v1.2c-.2-.2-.3-.3-.4-.4-3.7-3.7-7.3-7.3-11-11-.2-.2-.3-.3-.3-.3-1.2,1.2-2.4,2.4-3.5,3.5.1.1.2.2.3.3,3.7,3.7,7.3,7.3,11,11,1.3,1.3,2.7,2.7,4,4v1.1c-.1-.1-.3-.2-.4-.3-2.2-2.2-4.3-4.3-6.5-6.5-.1-.1-.2-.3-.2-.5,0,0-.1.1-.2.2v14.3h.1c.1-.1.2-.2.3-.3,2.2-2.2,4.3-4.3,6.4-6.4.1-.1.3-.2.4-.3v1.1c-.2.2-.3.3-.4.4l-7.5,7.5c-2.4,2.4-4.7,4.7-7.1,7.1-.1.1-.2.3-.3.3,1.2,1.2,2.4,2.4,3.6,3.6,0-.2.2-.3.3-.5,3.7-3.7,7.3-7.4,11-11,.1-.1.3-.2.4-.3v1.2c-.1.1-.2.2-.3.3-3.5,3.5-7.1,7.1-10.6,10.6,0,.1-.2.2-.3.3,1.2,1.2,2.4,2.4,3.5,3.5.1-.1.2-.2.4-.3,2.3-2.3,4.6-4.6,6.9-6.9.1-.1.3-.2.4-.3v1.2c-.1.1-.2.2-.3.2-2.2,2.2-4.4,4.4-6.6,6.6-.1.1-.2.2-.2.2,1.2,1.2,2.4,2.4,3.5,3.5.8-.8,1.8-1.8,2.7-2.7.3-.3.5-.5.8-.7v1.1c-1,1-2,2-2.9,2.9,1,1,2,2,2.9,3v1.1c-.1-.1-.3-.2-.4-.3-.9-.9-1.8-1.8-2.7-2.7-.1-.1-.2-.2-.4-.3v32c0,.2,0,.5.2.7,1.1,1.1,2.2,2.2,3.3,3.3v2.1c-1,1-1.9,2-2.9,3.1.9.9,1.9,1.9,2.9,2.9v1.1c-.7-.7-1.4-1.3-2.1-2-.5-.5-1-1-1.4-1.4-1.2,1.2-2.4,2.4-3.5,3.5,0,0,.1.1.2.2,2.2,2.2,4.4,4.4,6.6,6.6.1.1.2.1.3.2v1.2c-.1-.1-.3-.2-.4-.3-2.3-2.3-4.6-4.6-6.9-6.9-.2-.2-.2-.3-.3-.4-1.3,1.3-2.4,2.5-3.6,3.6,0,0,0,.1.2.2,3.6,3.6,7.2,7.2,10.7,10.7.1.1.2.2.3.2v1.2c-.2-.2-.3-.3-.4-.4-3.7-3.7-7.3-7.3-11-11-.2-.2-.3-.3-.3-.3-1.2,1.2-2.4,2.4-3.5,3.5.1.1.2.2.3.3,3.7,3.7,7.3,7.3,11,11,1.3,1.3,2.7,2.7,4,4v1.1c-.1-.1-.3-.2-.4-.3-2.2-2.2-4.3-4.3-6.5-6.5-.1-.1-.2-.3-.2-.5,0,0-.1.1-.2.2v14.4c.2-.2.3-.3.4-.4,2.2-2.2,4.3-4.3,6.4-6.4.1-.1.3-.2.4-.3v1.1c-.2.2-.3.3-.4.4-2.5,2.5-5,5-7.5,7.5-2.4,2.4-4.7,4.7-7.1,7.1-.1.1-.2.3-.3.3,1.2,1.2,2.4,2.4,3.6,3.6,0-.2.2-.3.3-.5,3.7-3.7,7.3-7.4,11-11,.1-.1.3-.2.4-.3v1.2c-.1.1-.2.2-.3.3-3.5,3.5-7.1,7.1-10.6,10.6,0,.1-.2.2-.3.3,1.2,1.2,2.4,2.4,3.5,3.5.1-.1.2-.2.4-.3,2.3-2.3,4.6-4.6,6.9-6.9.1-.1.3-.2.4-.3v1.2c-.1.1-.2.2-.3.2-2.2,2.2-4.4,4.4-6.6,6.6-.1.1-.2.2-.2.2,1.2,1.2,2.4,2.4,3.5,3.5.9-.9,1.8-1.8,2.7-2.7.3-.3.5-.5.8-.7v1.1c-1,1-2,2-2.9,2.9,1,1,2,2,2.9,3v1.1c-.1-.1-.3-.2-.4-.3-.9-.9-1.8-1.8-2.7-2.7-.1-.1-.2-.2-.4-.3v32c0,.2,0,.5.2.7,1.1,1.1,2.2,2.2,3.3,3.3v2.1c-1,1-1.9,2-2.9,3.1.9.9,1.9,1.9,2.9,2.9v1.1c-.7-.7-1.4-1.3-2.1-2-.5-.5-1-1-1.4-1.4-1.2,1.2-2.4,2.4-3.5,3.5,0,0,.1.1.2.2,2.2,2.2,4.4,4.4,6.6,6.6.1.1.2.1.3.2v1.2c-.1-.1-.3-.2-.4-.3-2.3-2.3-4.6-4.6-6.9-6.9-.2-.2-.2-.3-.3-.4-1.3,1.3-2.4,2.5-3.6,3.6l.2.2c3.6,3.6,7.2,7.2,10.7,10.7.1.1.2.2.3.2v1.2c-.2-.2-.3-.3-.4-.4-3.7-3.7-7.3-7.3-11-11-.2-.2-.3-.3-.3-.3-1.2,1.2-2.4,2.4-3.5,3.5.1.1.2.2.3.3,3.7,3.7,7.3,7.3,11,11,1.3,1.3,2.7,2.7,4,4v1.1c-.1-.1-.3-.2-.4-.3-2.2-2.2-4.3-4.3-6.5-6.5-.1-.1-.2-.3-.2-.5,0,0-.1.1-.2.2v14.3s.1,0,.1.1c.1-.1.2-.3.3-.4,2.2-2.2,4.3-4.3,6.4-6.4.1-.1.3-.2.4-.3v1.1c-.2.2-.3.3-.4.4l-7.5,7.5c-2.4,2.4-4.7,4.7-7.1,7.1-.1.1-.2.3-.3.3,1.2,1.2,2.4,2.4,3.6,3.6,0-.2.2-.3.3-.5,3.7-3.7,7.3-7.4,11-11,.1-.1.3-.2.4-.3v1.2c-.1.1-.2.2-.3.3-3.5,3.5-7.1,7.1-10.6,10.6,0,.1-.2.2-.3.3,1.2,1.2,2.4,2.4,3.5,3.5.1-.1.2-.2.4-.3,2.3-2.3,4.6-4.6,6.9-6.9.1-.1.3-.2.4-.3v1.2c-.1.1-.2.2-.3.2-2.2,2.2-4.4,4.4-6.6,6.6-.1.1-.2.2-.2.2,1.2,1.2,2.4,2.4,3.5,3.5.9-.9,1.8-1.8,2.7-2.7.3-.3.5-.5.8-.7v1.1c-1,1-2,2-2.9,2.9,1,1,2,2,2.9,3v1.1c-.1-.1-.3-.2-.4-.3-.9-.9-1.8-1.8-2.7-2.7-.1-.1-.2-.2-.4-.3v32c0,.2,0,.5.2.7,1.1,1.1,2.2,2.2,3.3,3.3v2.1c-1,1-1.9,2-2.9,3.1.9.9,1.9,1.9,2.9,2.9v1.1c-.7-.7-1.4-1.3-2.1-2-.5-.5-1-1-1.4-1.4-1.2,1.2-2.4,2.4-3.5,3.5,0,0,.1.1.2.2,2.2,2.2,4.4,4.4,6.6,6.6.1.1.2.1.3.2v1.2c-.1-.1-.3-.2-.4-.3-2.3-2.3-4.6-4.6-6.9-6.9-.2-.2-.2-.3-.3-.4-1.3,1.3-2.4,2.5-3.6,3.6l.2.2c3.6,3.6,7.2,7.2,10.7,10.7.1.1.2.2.3.2v1.2c-.2-.2-.3-.3-.4-.4-3.7-3.7-7.3-7.3-11-11-.2-.2-.2-.3-.3-.4-1.3,1.3-2.4,2.4-3.7,3.7.1.1.2.2.3.3,2.6,2.6,5.2,5.2,7.7,7.7.1.1.2.3.3.4h-1.2c-.1-.1-.2-.3-.3-.4-.8-.8-1.6-1.6-2.4-2.4,0-.2-.2-.3-.3-.5,0,0-.2.1-.2.2v3.2h-.8v-3.8c0-.2,0-.5-.2-.6-1-1-1.9-2-2.9-2.9q-.1-.1-.3-.2v7.5H-.3v-1.3c0,0,.2.1.3.2v-6.6c-.2,0-.2.1-.3.2v-2c.2.2.4.4.6.5,1.2-1.2,2.4-2.4,3.5-3.5-1.3-1.3-2.7-2.7-4-4.2v-1.1c.1.1.3.2.4.3,1.3,1.3,2.7,2.7,4,4,0,.1.2.2.3.3,1.2-1.2,2.4-2.4,3.6-3.6-.3-.3-.7-.6-1-.9-2.4-2.4-4.9-4.9-7.3-7.3v-1.1c.2.1.3.2.4.3,2.7,2.7,5.4,5.4,8.2,8.2.1.1.2.2.3.3,1.2-1.2,2.4-2.4,3.6-3.6-4.1-4.1-8.3-8.2-12.4-12.4v-1.1c.2.1.3.2.5.4,4.1,4.1,8.2,8.2,12.3,12.3.1.1.3.2.3.3,1.2-1.2,2.4-2.4,3.5-3.5-5.3-5.3-10.7-10.7-16.1-16.1,0,.1-.3.2-.4.3v-1.1c0-.1.1-.3.1-.4v-6.5c0-.1,0-.3-.1-.4v-2.1c.2.2.3.3.5.4,4-4,8-8,11.9-11.9-1.1-1.2-2.3-2.3-3.5-3.5-2.7,2.7-5.5,5.5-8.3,8.4-.2-.2-.3-.3-.5-.4v-1.1c.2.1.3.2.5.3,2.6-2.6,5.2-5.2,7.7-7.7-1.2-1.2-2.3-2.3-3.5-3.5-1.3,1.3-2.8,2.8-4.2,4.2-.2-.1-.3-.2-.5-.3v-1.2c.2.1.3.3.5.3,1.2-1.2,2.4-2.4,3.6-3.6-1.1-1.1-2.3-2.3-3.5-3.5-.2.2-.3.3-.5.5v-2.1c0,.1.2.1.4.2v-6.7c0-.3,0-.5-.4-.7v-1.1c0,0,.2.1.4.2v-6.5c0-.3,0-.6-.4-.8v-1.1c0,0,.2.1.4.2v-6.6c0-.3,0-.7-.4-.8v-1.1c0,0,.2.1.3.2v-6.6c-.2,0-.2.1-.3.2v-2c.2.2.4.4.6.5,1.2-1.2,2.4-2.4,3.5-3.5-1.3-1.3-2.7-2.7-4-4.2v-1.1c0,.1.3.2.4.3,1.3,1.3,2.7,2.7,4,4,0,.1.2.2.3.3,1.2-1.2,2.4-2.4,3.6-3.6-.3-.3-.7-.6-1-.9-2.4-2.4-4.9-4.9-7.3-7.3v-1.1c.2.1.3.2.4.3,2.7,2.7,5.4,5.4,8.2,8.2.1.1.2.2.3.3,1.2-1.2,2.4-2.4,3.6-3.5-4.8-4-9-8.2-13.1-12.3v-1.1c.2.1.3.2.5.4,4.1,4.1,8.2,8.2,12.3,12.3.1.1.3.2.3.3,1.2-1.2,2.4-2.4,3.5-3.5-5.3-5.4-10.7-10.7-16.1-16.1-.1.1-.3.2-.4.3v-1.1c0-.1.1-.3.1-.4v-6.5c0-.1,0-.3-.1-.4v-2.1c.2.2.3.3.5.4,4-4,8-8,11.9-11.9-1.2-1.2-2.3-2.3-3.5-3.5-2.7,2.7-5.5,5.5-8.3,8.4-.2-1.4-.4-1.5-.5-1.7ZM1.1,367.8q.1,0,.2-.1c1-1,2-2,3-3,0-.1.2-.3.2-.5v-23.8c0-.2,0-.4-.2-.5l-3-3s-.1,0-.2-.1c0,10.4,0,20.7,0,31ZM1.1,37.4v31.1c.1,0,.2,0,.2,0,1-1,2-2,3-3,0,0,.2-.3.2-.5v-23.7c0-.2,0-.3,0-.5-1.1-1.1-2.1-2.2-3.3-3.3ZM1.1,268c.1,0,.2-.1.2-.1,1-1,2-2,3-3,0-.1.2-.3.2-.5v-23.7c0-.2,0-.5-.3-.7-.9-1-1.8-1.9-2.8-2.8-.1-.1-.2-.2-.3-.2,0,10.4,0,20.7,0,31ZM1.1,137.2v31.1q.1,0,.2-.1c1-1,2-2,3.1-3.1,0-.1.2-.3.2-.5v-23.7c0-.2,0-.3,0-.5-1.2-1-2.2-2.1-3.4-3.2ZM12.4,382.4l-3,3c-.2.2-.3.5-.3.7v23.9c0,.2.1.5.3.7.9.9,1.8,1.8,2.7,2.7.1.1.2.2.3.3v-31.3ZM12.4,114.4v-31.3c-1,1-1.9,1.9-2.9,2.9-.3.3-.4.6-.4,1v23.2c0,.7.2,1.2.7,1.7.9.7,1.7,1.5,2.6,2.5ZM12.3,214.2v-31.3c-1,1-1.9,1.9-2.9,2.9-.3.3-.4.6-.4,1v22c0,.7-.2,1.5.1,2.1s.9,1,1.4,1.5c.7.5,1.2,1.1,1.8,1.8ZM12.4,282.6c-1,1-1.8,1.9-2.8,2.8-.4.3-.5.7-.5,1.2v23.4c0,.4.1.7.4.9.7.7,1.5,1.5,2.2,2.2.2.2.4.5.6.7h.1v-31.2ZM8.1,210h.1v-22.9q-.1,0-.2.1c-1,1-2,2-2.9,2.9-.1.1-.1.3-.1.5v15.7c0,.2,0,.5.3.7.7.8,1.5,1.5,2.2,2.2.2.3.4.5.6.8ZM8.2,110.2v-23c-.2.2-.3.2-.4.3-.8.9-1.5,1.7-2.4,2.5-.3.3-.5.7-.5,1.1v14.5c0,1,.2,1.7,1,2.3.8.7,1.5,1.5,2.3,2.3ZM8.1,309.8s.1-.1.2-.1v-22.8q-.1,0-.2.1c-1,1-2,2-2.9,2.9-.2.1-.2.3-.2.5v15.8c0,.2,0,.4.3.6.6.7,1.2,1.2,1.8,1.9.3.3.7.7,1,1.1ZM8.2,386.6q-.1,0-.2.1c-1,1-2,2-2.9,2.9,0,.2,0,.4,0,.6v15.7c0,.2,0,.5.3.7.7.8,1.5,1.5,2.2,2.2.2.2.4.5.7.8h.1c-.1-7.7-.1-15.3-.1-23ZM5.4,241.2v22.7c1-1,2-2,3-3,.1-.1.2-.3.2-.5v-15.6c0-.2,0-.3-.2-.5-1-1-1.9-2-3-3.1ZM5.4,141.4v22.6c1-1,2-2,3-3,.1-.1.2-.3.2-.5v-15.6c0-.2,0-.3-.2-.5-1-.9-2-1.9-3-3ZM5.3,363.6c0-.1.2-.1.2-.2.9-.9,1.9-1.8,2.8-2.8.1-.1.2-.4.2-.6v-15.5c0-.2-.1-.5-.3-.7-.8-.9-1.7-1.7-2.6-2.6,0-.1-.2-.2-.3-.2,0,7.6,0,15,0,22.6ZM5.4,64.3c1.1-1.1,2.1-2,3-3,.1,0,.2-.3.2-.5v-15.5c0-.2-.1-.5-.3-.7-.7-.7-1.4-1.4-2.2-2.2-.2-.2-.4-.5-.6-.7h0c0,7.5,0,15,0,22.6ZM4.1,291c-.2.2-.3.2-.3.3-.9.9-1.8,1.7-2.6,2.7-.2.2-.3.5-.3.7v7.4c0,.2,0,.5.3.7.8.9,1.8,1.8,2.6,2.7,0,.1.2.2.3.3v-14.8ZM4.1,205.8v-14.6c0,.1-.2.1-.2.2-1,1-1.9,1.9-2.9,2.9-.1.1-.2.3-.2.5v7.4c0,.2.1.5.3.6.8.9,1.7,1.7,2.6,2.6.1.1.2.2.4.4ZM4.1,91.4c0,0-.2,0-.2,0-1,1-2,2-2.9,2.9-.1,0-.2.3-.2.5v7.4c0,.2.1.5.3.7.9.9,1.8,1.8,2.7,2.7,0,0,.2.2.3.2v-14.5ZM4.1,405.4v-14.6c0,.1-.2.1-.2.2-1,1-1.9,1.9-2.9,2.9-.1.1-.2.3-.2.5v7.4c0,.2.1.5.3.6.8.9,1.7,1.7,2.6,2.6.1.1.2.2.4.4Z"/>
  <path class="cls-1" d="M-.1,685.1v-1.1c.2,0,.3.2.5.3,2.6-2.6,5.2-5.2,7.7-7.7-1.2-1.2-2.3-2.3-3.5-3.5-1.3,1.3-2.8,2.8-4.2,4.2-.2,0-.3-.2-.5-.3v-1.2c.2,0,.3.3.5.3,1.2-1.2,2.4-2.4,3.6-3.6-1.1-1.1-2.3-2.3-3.5-3.5-.2.2-.3.3-.5.5v-2.1c.1,0,.2,0,.4.2v-6.7c0-.3,0-.5-.4-.7v-1.1c.1,0,.2,0,.4.2v-6.5c0-.3,0-.6-.4-.8v-1.1c.1,0,.2,0,.4.2v-6.6c0-.3,0-.7-.4-.8v-1.1c.1,0,.2,0,.3.2v-6.6c-.2,0-.2,0-.3.2v-2c.2.2.4.4.6.5,1.2-1.2,2.4-2.4,3.5-3.5-1.3-1.3-2.7-2.7-4-4.2v-1.1c0,0,.3.2.4.3,1.3,1.3,2.7,2.7,4,4,0,0,.2.2.3.3,1.2-1.2,2.4-2.4,3.6-3.6-.3-.3-.7-.6-1-.9-2.4-2.4-4.9-4.9-7.3-7.3v-1.1c.2,0,.3.2.4.3,2.7,2.7,5.4,5.4,8.2,8.2.1,0,.2.2.3.3,1.2-1.2,2.4-2.4,3.6-3.5-4.1-4.1-8.3-8.2-12.4-12.4v-1.1c.2,0,.3.2.5.4,4.1,4.1,8.2,8.2,12.3,12.3.1,0,.3.2.3.3,1.2-1.2,2.4-2.4,3.5-3.5-5.3-5.3-10.7-10.7-16.1-16.1-.1,0-.3.2-.4.3v-1.1c0,0,0-.3,0-.4v-6.5c0,0,0-.3,0-.4v-2.1c.2.2.3.3.5.4,4-4,8-8,11.9-11.9-1.1-1.2-2.3-2.3-3.5-3.5-2.7,2.7-5.5,5.5-8.3,8.4-.2-.2-.3-.3-.5-.4v-1.1c.2,0,.3.2.5.3,2.6-2.6,5.2-5.2,7.7-7.7-1.2-1.2-2.3-2.3-3.5-3.5-1.3,1.3-2.8,2.8-4.2,4.2-.2,0-.3-.2-.5-.3v-1.2c.2,0,.3.3.5.3,1.2-1.2,2.4-2.4,3.6-3.6-1.1-1.1-2.3-2.3-3.5-3.5-.2.2-.3.3-.5.5v-2.1c.1,0,.2,0,.4.2v-6.7c0-.3-.1-.5-.4-.7v-1.1c0,0,.2,0,.4.2v-6.5c0-.3,0-.6-.4-.8v-1.1c0,0,.2,0,.4.2v-6.6c0-.3,0-.7-.4-.8v-1.1c0,0,.2,0,.3.2v-6.6c-.2,0-.2,0-.3.2v-2c.2.2.4.4.6.5,1.2-1.2,2.4-2.4,3.5-3.5-1.3-1.3-2.7-2.7-4-4.2v-1.1c.1,0,.3.2.4.3,1.3,1.3,2.7,2.7,4,4,0,0,.2.2.3.3,1.2-1.2,2.4-2.4,3.6-3.6-.3-.3-.7-.6-1-.9-2.4-2.4-4.9-4.9-7.3-7.3v-1.1c.2,0,.3.2.4.3,2.7,2.7,5.4,5.4,8.2,8.2.1,0,.2.2.3.3,1.2-1.2,2.4-2.4,3.6-3.6-4.1-4.1-8.3-8.2-12.4-12.4v-1.1c.2.1.3.2.5.4,4.1,4.1,8.2,8.2,12.3,12.3.1,0,.3.2.3.3,1.2-1.2,2.4-2.4,3.5-3.5-5.3-5.3-10.7-10.7-16.1-16.1-.1.1-.3.2-.4.3v-1.1c0-.1.1-.3.1-.4v-6.5c0-.1,0-.3-.1-.4v-2.1c.2.2.3.3.5.4,4-4,8-8,11.9-11.9-1.1-1.2-2.3-2.3-3.5-3.5-2.7,2.7-5.5,5.5-8.3,8.4-.2-.2-.3-.3-.5-.4v-1.1c.2.1.3.2.5.3,2.6-2.6,5.2-5.2,7.7-7.7-1.2-1.2-2.3-2.3-3.5-3.5-1.3,1.3-2.8,2.8-4.2,4.2-.2-.1-.3-.2-.5-.3v-1.2c.2.1.3.3.5.3,1.2-1.2,2.4-2.4,3.6-3.6-1.1-1.1-2.3-2.3-3.5-3.5-.2.2-.3.3-.5.5v-2.1c.1.1.2.1.4.2v-6.7c0-.3-.1-.5-.4-.7v-1.1c.1,0,.2.1.4.2v-6.5c0-.3,0-.6-.4-.8v-1.1c.1,0,.2.1.4.2v-6.6c0-.3,0-.7-.4-.8v-1.1c.1,0,.2.1.3.2v-6.6c-.2,0-.2.1-.3.2v-2c.2.2.4.4.6.5,1.2-1.2,2.4-2.4,3.5-3.5-1.3-1.3-2.7-2.7-4-4.2v-1.1c.1.1.3.2.4.3,1.3,1.3,2.7,2.7,4,4,0,.1.2.2.3.3,1.2-1.2,2.4-2.4,3.6-3.6-.3-.3-.7-.6-1-.9-2.4-2.4-4.9-4.9-7.3-7.3v-1.1c.2.1.3.2.4.3,2.7,2.7,5.4,5.4,8.2,8.2.1.1.2.2.3.3,1.2-1.2,2.4-2.4,3.6-3.5-4.1-4.1-8.3-8.2-12.4-12.4v-1.1c.2.1.3.2.5.4,4.1,4.1,8.2,8.2,12.3,12.3.1.1.3.2.3.3,1.2-1.2,2.4-2.4,3.5-3.5-5.3-5.3-10.7-10.7-16.1-16.1-.1.1-.3.2-.4.3v-3.2h.9v1.6c0,.2,0,.5.3.7.9.9,1.8,1.8,2.7,2.7,0,.1.2.2.3.3v-5.2h.8v5.8c0,.2,0,.5.2.6.9.9,1.8,1.8,2.7,2.7.1.1.2.1.3.2v-9.3h.8v10c0,.2.1.4.2.5.9.9,1.8,1.8,2.7,2.7.1.1.2.1.3.2v-13.6h.7v14c0,.2,0,.5.2.7,1.1,1.1,2.2,2.2,3.3,3.3v2.1c-1,1-1.9,2-2.9,3.1.9.9,1.9,1.9,2.9,2.9v1.1c-.7-.7-1.4-1.3-2.1-2-.5-.5-1-1-1.4-1.4-1.2,1.2-2.4,2.4-3.5,3.5,0,0,.1.1.2.2,2.2,2.2,4.4,4.4,6.6,6.6.1.1.2.1.3.2v1.2c-.1-.1-.3-.2-.4-.3-2.3-2.3-4.6-4.6-6.9-6.9-.2-.2-.2-.3-.3-.4-1.3,1.3-2.4,2.5-3.6,3.6l.2.2c3.6,3.6,7.2,7.2,10.7,10.7.1.1.2.2.3.2v1.2c-.2-.2-.3-.3-.4-.4-3.7-3.7-7.3-7.3-11-11-.2-.2-.3-.3-.3-.3-1.2,1.2-2.4,2.4-3.5,3.5,0,.1.2.2.3.3,3.7,3.7,7.3,7.3,11,11,1.3,1.3,2.7,2.7,4,4v1.1c-.1-.1-.3-.2-.4-.3-2.2-2.2-4.3-4.3-6.5-6.5-.1-.1-.2-.3-.2-.5,0,0-.1.1-.2.2v14.3s.1,0,.1.1c.1-.1.2-.3.3-.4,2.2-2.2,4.3-4.3,6.4-6.4.1-.1.3-.2.4-.3v1.1c-.2.2-.3.3-.4.4l-7.5,7.5c-2.4,2.4-4.7,4.7-7.1,7.1,0,.1-.2.3-.3.3,1.2,1.2,2.4,2.4,3.6,3.6,0-.2.2-.3.3-.5,3.7-3.7,7.3-7.4,11-11,.1-.1.3-.2.4-.3v1.2c-.1.1-.2.2-.3.3-3.5,3.5-7.1,7.1-10.6,10.6,0,.1-.2.2-.3.3,1.2,1.2,2.4,2.4,3.5,3.5.1-.1.2-.2.4-.3,2.3-2.3,4.6-4.6,6.9-6.9.1-.1.3-.2.4-.3v1.2c-.1.1-.2.2-.3.2-2.2,2.2-4.4,4.4-6.6,6.6-.1.1-.2.2-.2.2,1.2,1.2,2.4,2.4,3.5,3.5.8-.8,1.8-1.8,2.7-2.7.3-.3.5-.5.8-.7v1.1c-1,1-2,2-2.9,2.9,1,1,2,2,2.9,3v1.1c-.1-.1-.3-.2-.4-.3-.9-.9-1.8-1.8-2.7-2.7-.1-.1-.2-.2-.4-.3v32c0,.2,0,.5.2.7,1.1,1.1,2.2,2.2,3.3,3.3v2.1c-1,1-1.9,2-2.9,3.1.9.9,1.9,1.9,2.9,2.9v1.1c-.7-.7-1.4-1.3-2.1-2-.5-.5-1-1-1.4-1.4-1.2,1.2-2.4,2.4-3.5,3.5,0,0,.1,0,.2.2,2.2,2.2,4.4,4.4,6.6,6.6.1,0,.2,0,.3.2v1.2c-.1,0-.3-.2-.4-.3-2.3-2.3-4.6-4.6-6.9-6.9-.2-.2-.2-.3-.3-.4-1.3,1.3-2.4,2.5-3.6,3.6,0,0,0,0,.2.2,3.6,3.6,7.2,7.2,10.7,10.7.1,0,.2.2.3.2v1.2c-.2-.2-.3-.3-.4-.4-3.7-3.7-7.3-7.3-11-11-.2-.2-.3-.3-.3-.3-1.2,1.2-2.4,2.4-3.5,3.5,0,0,.2.2.3.3,3.7,3.7,7.3,7.3,11,11,1.3,1.3,2.7,2.7,4,4v1.1c-.1,0-.3-.2-.4-.3-2.2-2.2-4.3-4.3-6.5-6.5-.1,0-.2-.3-.2-.5,0,0-.1,0-.2.2v14.3h.1c.1,0,.2-.2.3-.3,2.2-2.2,4.3-4.3,6.4-6.4.1,0,.3-.2.4-.3v1.1c-.2.2-.3.3-.4.4l-7.5,7.5c-2.4,2.4-4.7,4.7-7.1,7.1,0,0-.2.3-.3.3,1.2,1.2,2.4,2.4,3.6,3.6,0-.2.2-.3.3-.5,3.7-3.7,7.3-7.4,11-11,.1,0,.3-.2.4-.3v1.2c-.1,0-.2.2-.3.3-3.5,3.5-7.1,7.1-10.6,10.6,0,0-.2.2-.3.3,1.2,1.2,2.4,2.4,3.5,3.5.1,0,.2-.2.4-.3,2.3-2.3,4.6-4.6,6.9-6.9.1,0,.3-.2.4-.3v1.2c-.1,0-.2.2-.3.2-2.2,2.2-4.4,4.4-6.6,6.6-.1,0-.2.2-.2.2,1.2,1.2,2.4,2.4,3.5,3.5.8-.8,1.8-1.8,2.7-2.7.3-.3.5-.5.8-.7v1.1c-1,1-2,2-2.9,2.9,1,1,2,2,2.9,3v1.1c-.1,0-.3-.2-.4-.3-.9-.9-1.8-1.8-2.7-2.7-.1,0-.2-.2-.4-.3v32c0,.2,0,.5.2.7,1.1,1.1,2.2,2.2,3.3,3.3v2.1c-1,1-1.9,2-2.9,3.1.9.9,1.9,1.9,2.9,2.9v1.1c-.7-.7-1.4-1.3-2.1-2-.5-.5-1-1-1.4-1.4-1.2,1.2-2.4,2.4-3.5,3.5,0,0,.1,0,.2.2,2.2,2.2,4.4,4.4,6.6,6.6.1,0,.2,0,.3.2v1.2c-.1,0-.3-.2-.4-.3-2.3-2.3-4.6-4.6-6.9-6.9-.2-.2-.2-.3-.3-.4-1.3,1.3-2.4,2.5-3.6,3.6,0,0,0,0,.2.2,3.6,3.6,7.2,7.2,10.7,10.7.1,0,.2.2.3.2v1.2c-.2-.2-.3-.3-.4-.4-3.7-3.7-7.3-7.3-11-11-.2-.2-.3-.3-.3-.3-1.2,1.2-2.4,2.4-3.5,3.5,0,0,.2.2.3.3,3.7,3.7,7.3,7.3,11,11,1.3,1.3,2.7,2.7,4,4v1.1c-.1,0-.3-.2-.4-.3-2.2-2.2-4.3-4.3-6.5-6.5-.1,0-.2-.3-.2-.5,0,0-.1,0-.2.2v14.4c.2-.2.3-.3.4-.4,2.2-2.2,4.3-4.3,6.4-6.4.1,0,.3-.2.4-.3v1.1c-.2.2-.3.3-.4.4l-7.5,7.5c-2.4,2.4-4.7,4.7-7.1,7.1,0,0-.2.3-.3.3,1.2,1.2,2.4,2.4,3.6,3.6,0-.2.2-.3.3-.5,3.7-3.7,7.3-7.4,11-11,.1,0,.3-.2.4-.3v1.2c-.1,0-.2.2-.3.3-3.5,3.5-7.1,7.1-10.6,10.6,0,0-.2.2-.3.3,1.2,1.2,2.4,2.4,3.5,3.5.1,0,.2-.2.4-.3,2.3-2.3,4.6-4.6,6.9-6.9.1,0,.3-.2.4-.3v1.2c-.1,0-.2.2-.3.2-2.2,2.2-4.4,4.4-6.6,6.6-.1,0-.2.2-.2.2,1.2,1.2,2.4,2.4,3.5,3.5.9-.9,1.8-1.8,2.7-2.7.3-.3.5-.5.8-.7v1.1c-1,1-2,2-2.9,2.9,1,1,2,2,2.9,3v1.1c-.1,0-.3-.2-.4-.3-.9-.9-1.8-1.8-2.7-2.7-.1,0-.2-.2-.4-.3v32c0,.2,0,.5.2.7,1.1,1.1,2.2,2.2,3.3,3.3v2.1c-1,1-1.9,2-2.9,3.1.9.9,1.9,1.9,2.9,2.9v1.1c-.7-.7-1.4-1.3-2.1-2-.5-.5-1-1-1.4-1.4-1.2,1.2-2.4,2.4-3.5,3.5,0,0,.1,0,.2.2,2.2,2.2,4.4,4.4,6.6,6.6.1,0,.2,0,.3.2v1.2c-.1,0-.3-.2-.4-.3-2.3-2.3-4.6-4.6-6.9-6.9-.2-.2-.2-.3-.3-.4-1.3,1.3-2.4,2.5-3.6,3.6,0,0,0,0,.2.2,3.6,3.6,7.2,7.2,10.7,10.7.1,0,.2.2.3.2v1.2c-.2-.2-.3-.3-.4-.4-3.7-3.7-7.3-7.3-11-11-.2-.2-.3-.3-.3-.3-1.2,1.2-2.4,2.4-3.5,3.5,0,0,.2.2.3.3,3.7,3.7,7.3,7.3,11,11,1.3,1.3,2.7,2.7,4,4v1.1c-.1,0-.3-.2-.4-.3-2.2-2.2-4.3-4.3-6.5-6.5-.1,0-.2-.3-.2-.5,0,0-.1,0-.2.2v14.3s.1,0,.1,0c.1,0,.2-.3.3-.4,2.2-2.2,4.3-4.3,6.4-6.4.1,0,.3-.2.4-.3v1.1c-.2.2-.3.3-.4.4l-7.5,7.5c-2.4,2.4-4.7,4.7-7.1,7.1,0,0-.2.3-.3.3,1.2,1.2,2.4,2.4,3.6,3.6,0-.2.2-.3.3-.5,3.7-3.7,7.3-7.4,11-11,.1,0,.3-.2.4-.3v1.2c-.1,0-.2.2-.3.3-3.5,3.5-7.1,7.1-10.6,10.6,0,0-.2.2-.3.3,1.2,1.2,2.4,2.4,3.5,3.5.1,0,.2-.2.4-.3,2.3-2.3,4.6-4.6,6.9-6.9.1,0,.3-.2.4-.3v1.2c-.1,0-.2.2-.3.2-2.2,2.2-4.4,4.4-6.6,6.6-.1,0-.2.2-.2.2,1.2,1.2,2.4,2.4,3.5,3.5.9-.9,1.8-1.8,2.7-2.7.3-.3.5-.5.8-.7v1.1c-1,1-2,2-2.9,2.9,1,1,2,2,2.9,3v1.1c-.1,0-.3-.2-.4-.3-.9-.9-1.8-1.8-2.7-2.7-.1,0-.2-.2-.4-.3v32c0,.2,0,.5.2.7,1.1,1.1,2.2,2.2,3.3,3.3v2.1c-1,1-1.9,2-2.9,3.1.9.9,1.9,1.9,2.9,2.9v1.1c-.7-.7-1.4-1.3-2.1-2-.5-.5-1-1-1.4-1.4-1.2,1.2-2.4,2.4-3.5,3.5,0,0,.1,0,.2.2,2.2,2.2,4.4,4.4,6.6,6.6.1,0,.2,0,.3.2v1.2c-.1,0-.3-.2-.4-.3-2.3-2.3-4.6-4.6-6.9-6.9-.2-.2-.2-.3-.3-.4-1.3,1.3-2.4,2.5-3.6,3.6,0,0,0,0,.2.2,3.6,3.6,7.2,7.2,10.7,10.7.1,0,.2.2.3.2v1.2c-.2-.2-.3-.3-.4-.4-3.7-3.7-7.3-7.3-11-11-.2-.2-.2-.3-.3-.4-1.3,1.3-2.4,2.4-3.7,3.7,0,0,.2.2.3.3,2.6,2.6,5.2,5.2,7.7,7.7.1,0,.2.3.3.4h-1.2c-.1,0-.2-.3-.3-.4-.8-.8-1.6-1.6-2.4-2.4,0-.2-.2-.3-.3-.5,0,0-.2,0-.2.2v3.2h-.8v-3.8c0-.2,0-.5-.2-.6-1-1-1.9-2-2.9-2.9q-.2-1.8-.4-1.9v7.5H.8v-1.3c.1,0,.2,0,.3.2v-6.6c-.2,0-.2,0-.3.2v-2c.2.2.4.4.6.5,1.2-1.2,2.4-2.4,3.5-3.5-1.3-1.3-2.7-2.7-4-4.2v-1.1c.1,0,.3.2.4.3,1.3,1.3,2.7,2.7,4,4,0,0,.2.2.3.3,1.2-1.2,2.4-2.4,3.6-3.6-.3-.3-.7-.6-1-.9-2.4-2.4-4.9-4.9-7.3-7.3v-1.1c.2,0,.3.2.4.3,2.7,2.7,5.4,5.4,8.2,8.2.1,0,.2.2.3.3,1.2-1.2,2.4-2.4,3.6-3.6-4.1-4.1-8.3-8.2-12.4-12.4v-1.1c.2,0,.3.2.5.4,4.1,4.1,8.2,8.2,12.3,12.3.1,0,.3.2.3.3,1.2-1.2,2.4-2.4,3.5-3.5-5.3-5.3-10.7-10.7-16.1-16.1-.1,0-.3.2-.4.3v-1.1c0,0,.1-.3.1-.4v-6.5c0,0,0-.3-.1-.4v-2.1c.2.2.3.3.5.4,4-4,8-8,11.9-11.9-1.1-1.2-2.3-2.3-3.5-3.5-2.7,2.7-5.5,5.5-8.3,8.4-.2-.2-.3-.3-.5-.4v-1.1c.2,0,.3.2.5.3,2.6-2.6,5.2-5.2,7.7-7.7-1.2-1.2-2.3-2.3-3.5-3.5-1.3,1.3-2.8,2.8-4.2,4.2-.2,0-.3-.2-.5-.3v-1.2c.2,0,.3.3.5.3,1.2-1.2,2.4-2.4,3.6-3.6-1.1-1.1-2.3-2.3-3.5-3.5-.2.2-.3.3-.5.5v-2.1c.1,0,.2,0,.4.2v-6.7c0-.3-.1-.5-.4-.7v-1.1c.1,0,.2,0,.4.2v-6.5c0-.3,0-.6-.4-.8v-1.1c.1,0,.2,0,.4.2v-6.6c0-.3,0-.7-.4-.8v-1.1c.1,0,.2,0,.3.2v-6.6c-.2,0-.2,0-.3.2v-2c.2.2.4.4.6.5,1.2-1.2,2.4-2.4,3.5-3.5-1.3-1.3-2.7-2.7-4-4.2v-1.1c.1,0,.3.2.4.3,1.3,1.3,2.7,2.7,4,4,0,0,.2.2.3.3,1.2-1.2,2.4-2.4,3.6-3.6-.3-.3-.7-.6-1-.9-2.4-2.4-4.9-4.9-7.3-7.3v-1.1c.2,0,.3.2.4.3,2.7,2.7,5.4,5.4,8.2,8.2.1,0,.2.2.3.3,1.2-1.2,2.4-2.4,3.6-3.5-4.1-4.1-8.3-8.2-12.4-12.4v-1.1c.2,0,.3.2.5.4,4.1,4.1,8.2,8.2,12.3,12.3.1,0,.3.2.3.3,1.2-1.2,2.4-2.4,3.5-3.5-6.1-5.8-11.5-11.2-16.9-16.5-.1,0-.3.2-.4.3v-1.1c0,0,.1-.3.1-.4v-6.5c0,0,0-.3-.1-.4v-2.1c.2.2.3.3.5.4,4-4,8-8,11.9-11.9-1.2-1.2-2.3-2.3-3.5-3.5-2.7,2.7-5.5,5.5-8.3,8.4-1.2-.5-1.4-.7-1.5-.8ZM1.1,767.1q.1,0,.2,0c1-1,2-2,3-3,0,0,.2-.3.2-.5v-23.8c0-.2,0-.4-.2-.5l-3-3s-.1,0-.2,0c0,10.3,0,20.6,0,31ZM1.1,436.6v31.1c.1,0,.2-.1.2-.1,1-1,2-2,3-3,0-.1.2-.3.2-.5v-23.7c0-.2,0-.3,0-.5-1.1-1.1-2.1-2.1-3.3-3.3ZM1.1,667.3c.1,0,.2,0,.2,0,1-1,2-2,3-3,0,0,.2-.3.2-.5v-23.7c0-.2,0-.5-.3-.7-.9-1-1.8-1.9-2.8-2.8-.1,0-.2-.2-.3-.2,0,10.3,0,20.6,0,31ZM1.1,536.4v31.1q.1,0,.2,0c1-1,2-2,3.1-3.1,0,0,.2-.3.2-.5v-23.7c0-.2,0-.3,0-.5-1.2-1-2.2-2-3.4-3.2ZM12.4,781.7l-3,3c-.2.2-.3.5-.3.7v23.9c0,.2.1.5.3.7.9.9,1.8,1.8,2.7,2.7.1,0,.2.2.3.3v-31.3ZM12.4,513.6v-31.3c-1,1-1.9,1.9-2.9,2.9-.3.3-.4.6-.4,1v23.2c0,.7.2,1.2.7,1.7.9.7,1.7,1.6,2.6,2.5ZM12.3,613.4v-31.3c-1,1-1.9,1.9-2.9,2.9-.3.3-.4.6-.4,1v22c0,.7-.2,1.5.1,2.1s.9,1,1.4,1.5c.7.6,1.2,1.2,1.8,1.8ZM12.4,681.9c-1,1-1.8,1.9-2.8,2.8-.4.3-.5.7-.5,1.2v23.4c0,.4.1.7.4.9.7.7,1.5,1.5,2.2,2.2.2.2.4.5.6.7h.1v-31.2ZM8.1,609.2h.1v-22.9q-.1,0-.2,0c-1,1-2,2-2.9,2.9-.1,0-.1.4-.1.5v15.7c0,.2,0,.5.3.7.7.8,1.5,1.5,2.2,2.2.2.3.4.6.6.8ZM8.2,509.5v-23c-.2.2-.3.2-.4.3-.8.8-1.6,1.6-2.4,2.4-.3.3-.5.7-.5,1.1v14.5c0,1,.2,1.7,1,2.3.8.8,1.5,1.5,2.3,2.4ZM8.1,709s.1,0,.2,0v-22.8q-.1,0-.2,0c-1,1-2,2-2.9,2.9-.2.2-.2.4-.2.5v15.8c0,.2,0,.4.3.6.6.7,1.2,1.2,1.8,1.9.3.4.7.7,1,1.1ZM8.2,785.9q-.1,0-.2,0c-1,1-2,2-2.9,2.9,0,0,0,.4,0,.5v15.7c0,.2,0,.5.3.7.7.8,1.5,1.5,2.2,2.2.2.2.4.5.7.8h.1c-.1-7.7-.1-15.3-.1-22.9ZM5.4,640.4v22.7c1-1,2-2,3-3,.1,0,.2-.3.2-.5v-15.6c0-.2,0-.3-.2-.5-1-1-1.9-2-3-3.1ZM5.4,540.7v22.6c1-1,2-2,3-3,.1,0,.2-.3.2-.5v-15.6c0-.2,0-.3-.2-.5-1-1-2-2-3-3ZM5.3,762.9c0,0,.2,0,.2-.2.9-.9,1.9-1.8,2.8-2.8.1,0,.2-.4.2-.6v-15.5c0-.2-.1-.5-.3-.7-.8-.9-1.7-1.7-2.6-2.6,0,0-.2-.2-.3-.2,0,7.5,0,15,0,22.6ZM5.4,463.5c1.1-1.1,2.1-2,3-3,.1-.1.2-.3.2-.5v-15.5c0-.2-.1-.5-.3-.7-.7-.7-1.4-1.4-2.2-2.2-.2-.2-.4-.5-.6-.7h0c0,7.6,0,15,0,22.6ZM4.1,690.2c-.2.2-.3.2-.3.3-.9.9-1.8,1.7-2.6,2.7-.2.2-.3.5-.3.7v7.4c0,.2,0,.5.3.7.8.9,1.8,1.8,2.6,2.7,0,0,.2.2.3.3v-14.8ZM4.1,605.1v-14.6c0,0-.2,0-.2.2-1,1-1.9,1.9-2.9,2.9-.1,0-.2.3-.2.5v7.4c0,.2.1.5.3.6.8.9,1.7,1.7,2.6,2.6.1,0,.2.2.4.4ZM4.1,490.7c0,0-.2.1-.2.1-1,1-2,2-2.9,2.9-.1.1-.2.3-.2.5v7.4c0,.2.1.5.3.7.9.9,1.8,1.8,2.7,2.7,0,.1.2.2.3.2v-14.5ZM4.1,804.6v-14.6c0,0-.2,0-.2.2-1,1-1.9,1.9-2.9,2.9-.1,0-.2.3-.2.5v7.4c0,.2.1.5.3.6.8.9,1.7,1.7,2.6,2.6.1,0,.2.2.4.4Z"/>
</svg>